# xmcd
#
# Track frame offsets:
#	150
#	13765
#	25020
#	36018
#	45563
#	58218
#	67370
#	79873
#	89118
#	101175
#	110870
#	119320
#	130570
#	145195
#	163153
#	173258
#
# Disc length: 2513 seconds
#
# Revision: 1
# Processed by: cddbd v1.5PL3 Copyright (c) Steve Scherf et al.
# Submitted via: CDex 1.50Beta5
#
DISCID=e109cf10
DTITLE=YAMA-KEI - 日本百名山
DYEAR=1900
DGENRE=
TTITLE0=テーマ
TTITLE1=夜
TTITLE2=払暁の空
TTITLE3=絶景
TTITLE4=青空の下
TTITLE5=火山
TTITLE6=雫
TTITLE7=稜線
TTITLE8=朝霧の湿原
TTITLE9=登頂
TTITLE10=For Cello
TTITLE11=For Cello
TTITLE12=山の天使たち
TTITLE13=故郷の山
TTITLE14=山の見える町
TTITLE15=池塘
EXTD=
EXTT0=
EXTT1=
EXTT2=
EXTT3=
EXTT4=
EXTT5=
EXTT6=
EXTT7=
EXTT8=
EXTT9=
EXTT10=
EXTT11=
EXTT12=
EXTT13=
EXTT14=
EXTT15=
PLAYORDER=
